# xmcd
#
# Track frame offsets: 
#        300
#        19073
#        36743
#        65301
#        85354
#        113227
#        131776
#        156001
#        187177
#        224175
#
# Disc length: 3217 seconds
#
# Revision: 4
# Processed by: cddbd v1.5.2PL0 Copyright (c) Steve Scherf et al.
# Submitted via: ExactAudioCopy v1.0b1
#
DISCID=9d0c8d0a
DTITLE=Pat Travers - Halfway To Somewhere
DYEAR=1995
DGENRE=Boogie Rock
TTITLE0=Just Enough Money
TTITLE1=Time Out
TTITLE2=Walk In My Shoes
TTITLE3=Steppin'Out
TTITLE4=Look Me Up
TTITLE5=Party Tonight
TTITLE6=Just Like A Dream
TTITLE7=Hard Times
TTITLE8=No Escape
TTITLE9=Freight Train
EXTD=
EXTT0=
EXTT1=
EXTT2=
EXTT3=
EXTT4=
EXTT5=
EXTT6=
EXTT7=
EXTT8=
EXTT9=
PLAYORDER=
